<svg xmlns="http://www.w3.org/2000/svg" xmlns:xlink="http://www.w3.org/1999/xlink" width="480" zoomAndPan="magnify" viewBox="0 0 360 179.999997" height="240" preserveAspectRatio="xMidYMid meet" version="1.0"><defs><clipPath id="02e9a6ff76"><path d="M 249 50.238281 L 328 50.238281 L 328 129 L 249 129 Z M 249 50.238281 " clip-rule="nonzero"/></clipPath><clipPath id="d7928fd285"><path d="M 331 118 L 342 118 L 342 129.738281 L 331 129.738281 Z M 331 118 " clip-rule="nonzero"/></clipPath></defs><rect x="-36" width="432" fill="#ffffff" y="-18" height="215.999996" fill-opacity="1"/><rect x="-36" width="432" fill="#f2f4f4" y="-18" height="215.999996" fill-opacity="1"/><path fill="#011e2d" d="M 337.410156 124.515625 C 338.214844 124.527344 338.871094 123.882812 338.878906 123.078125 C 338.878906 123.046875 338.878906 123.011719 338.878906 122.980469 C 338.878906 121.890625 338.21875 121.371094 336.875 121.371094 L 334.695312 121.371094 L 334.695312 127.078125 L 335.515625 127.078125 L 335.515625 124.59375 L 336.519531 124.59375 L 336.546875 124.625 L 338.113281 127.078125 L 338.988281 127.078125 L 337.304688 124.535156 L 337.417969 124.519531 Z M 336.464844 123.941406 L 335.515625 123.941406 L 335.515625 122.015625 L 336.722656 122.015625 C 337.34375 122.015625 338.050781 122.117188 338.050781 122.929688 C 338.050781 123.867188 337.335938 123.941406 336.460938 123.941406 " fill-opacity="1" fill-rule="nonzero"/><path fill="#011e2d" d="M 18 62.121094 L 30.101562 62.121094 L 30.101562 106.203125 L 52.507812 106.203125 L 52.507812 117.371094 L 18 117.371094 Z M 18 62.121094 " fill-opacity="1" fill-rule="nonzero"/><path fill="#011e2d" d="M 57.859375 79.910156 L 69.484375 79.910156 L 69.484375 117.355469 L 57.859375 117.355469 Z M 63.667969 61.296875 C 67.394531 61.296875 70.410156 64.320312 70.410156 68.042969 C 70.410156 71.765625 67.386719 74.785156 63.664062 74.785156 C 59.941406 74.785156 56.921875 71.765625 56.921875 68.039062 C 56.921875 64.308594 59.941406 61.292969 63.667969 61.292969 " fill-opacity="1" fill-rule="nonzero"/><path fill="#011e2d" d="M 118.121094 62.109375 L 129.742188 62.109375 L 129.742188 95.128906 L 142.917969 79.890625 L 157.175781 79.890625 L 141.917969 97.226562 L 156.851562 117.363281 L 142.246094 117.363281 L 129.902344 98.859375 L 129.746094 98.859375 L 129.746094 117.363281 L 118.121094 117.363281 Z M 118.121094 62.109375 " fill-opacity="1" fill-rule="nonzero"/><path fill="#011e2d" d="M 75.929688 79.910156 L 87.097656 79.910156 L 87.097656 85.027344 L 87.253906 85.027344 C 89.527344 81.132812 93.761719 78.804688 98.261719 78.980469 C 110.054688 78.980469 112.222656 86.734375 112.222656 96.8125 L 112.222656 117.34375 L 100.597656 117.34375 L 100.597656 99.140625 C 100.597656 94.796875 100.515625 89.210938 94.539062 89.210938 C 88.566406 89.210938 87.5625 93.941406 87.5625 98.828125 L 87.5625 117.34375 L 75.933594 117.34375 L 75.925781 79.914062 Z M 75.929688 79.910156 " fill-opacity="1" fill-rule="nonzero"/><path fill="#011e2d" d="M 181.65625 94.273438 C 181.75 90.429688 178.699219 87.230469 174.855469 87.136719 C 174.742188 87.136719 174.632812 87.136719 174.523438 87.136719 C 170.296875 86.878906 166.640625 90.050781 166.304688 94.273438 L 181.664062 94.273438 Z M 191.507812 110.867188 C 187.597656 115.609375 181.757812 118.347656 175.609375 118.316406 C 163.984375 118.316406 154.675781 110.554688 154.675781 98.539062 C 154.675781 86.523438 163.980469 78.765625 175.609375 78.765625 C 186.476562 78.765625 193.292969 86.515625 193.292969 98.539062 L 193.292969 102.1875 L 166.3125 102.1875 C 167.007812 106.464844 170.746094 109.574219 175.074219 109.476562 C 178.433594 109.457031 181.558594 107.734375 183.371094 104.902344 L 191.515625 110.875 Z M 191.507812 110.867188 " fill-opacity="1" fill-rule="nonzero"/><path fill="#011e2d" d="M 217.527344 88.960938 C 211.714844 88.960938 208.226562 92.84375 208.226562 98.496094 C 208.226562 104.148438 211.714844 108.035156 217.527344 108.035156 C 223.335938 108.035156 226.835938 104.15625 226.835938 98.496094 C 226.835938 92.832031 223.347656 88.960938 217.527344 88.960938 M 237.535156 117.34375 L 226.835938 117.34375 L 226.835938 112.378906 L 226.675781 112.378906 C 223.957031 116.039062 219.679688 118.21875 215.117188 118.273438 C 203.945312 118.273438 196.589844 110.214844 196.589844 98.8125 C 196.589844 88.339844 203.101562 78.722656 213.808594 78.722656 C 218.621094 78.722656 223.109375 80.039062 225.75 83.691406 L 225.902344 83.691406 L 225.902344 62.109375 L 237.542969 62.109375 L 237.542969 117.34375 Z M 237.535156 117.34375 " fill-opacity="1" fill-rule="nonzero"/><g clip-path="url(#02e9a6ff76)"><path fill="#011e2d" d="M 316.023438 117.363281 L 304.398438 117.363281 L 304.398438 99.160156 C 304.398438 94.816406 304.320312 89.230469 298.351562 89.230469 C 292.382812 89.230469 291.371094 93.960938 291.371094 98.847656 L 291.371094 117.371094 L 279.742188 117.371094 L 279.742188 79.921875 L 290.902344 79.921875 L 290.902344 85.035156 L 291.0625 85.035156 C 293.339844 81.144531 297.570312 78.820312 302.074219 78.988281 C 313.859375 78.988281 316.03125 86.738281 316.03125 96.820312 L 316.03125 117.359375 Z M 266.625 74.804688 C 262.902344 74.804688 259.878906 71.789062 259.878906 68.058594 C 259.878906 64.328125 262.898438 61.3125 266.625 61.3125 C 270.351562 61.3125 273.375 64.328125 273.375 68.058594 C 273.375 71.789062 270.355469 74.804688 266.625 74.804688 M 272.4375 117.363281 L 260.800781 117.363281 L 260.800781 79.921875 L 272.4375 79.921875 Z M 321.820312 50.511719 L 254.957031 50.511719 C 251.796875 50.476562 249.210938 53.007812 249.167969 56.171875 L 249.167969 123.3125 C 249.203125 126.476562 251.796875 129.007812 254.957031 128.976562 L 321.820312 128.976562 C 324.988281 129.015625 327.589844 126.480469 327.632812 123.3125 L 327.632812 56.164062 C 327.585938 53 324.988281 50.46875 321.820312 50.507812 " fill-opacity="1" fill-rule="nonzero"/></g><g clip-path="url(#d7928fd285)"><path fill="#011e2d" d="M 336.5625 118.828125 C 333.605469 118.859375 331.238281 121.273438 331.261719 124.230469 C 331.292969 127.1875 333.707031 129.554688 336.664062 129.527344 C 339.621094 129.496094 341.988281 127.082031 341.964844 124.128906 C 341.9375 121.210938 339.582031 118.859375 336.664062 118.828125 L 336.5625 118.828125 M 336.5625 128.914062 C 333.972656 128.957031 331.835938 126.894531 331.796875 124.300781 C 331.753906 121.707031 333.816406 119.574219 336.410156 119.535156 C 338.996094 119.492188 341.136719 121.554688 341.175781 124.148438 L 341.175781 124.222656 C 341.234375 126.757812 339.222656 128.859375 336.683594 128.910156 L 336.5625 128.910156 " fill-opacity="1" fill-rule="nonzero"/></g></svg>