<?xml version="1.0" standalone="no"?>
<!DOCTYPE svg PUBLIC "-//W3C//DTD SVG 1.1//EN" "http://www.w3.org/Graphics/SVG/1.1/DTD/svg11.dtd">
<svg xmlns="http://www.w3.org/2000/svg" xmlns:xlink="http://www.w3.org/1999/xlink" version="1.1" id="Layer_1" x="0px" y="0px" viewBox="0 0 562.2 105.7" style="enable-background:new 0 0 562.2 105.7;" xml:space="preserve" width="562.2000122070312" height="105.69999694824219">
<style type="text/css">
	.st0{fill:#011E2D;}
	.st1{fill:#CC4900;}
</style>
<g>
	<g>
		<path class="st0" d="M158.7,44l-4.6-16.5c-0.1-0.2-0.2-0.2-0.3-0.2h-2c-0.2,0-0.3,0.1-0.3,0.3v16.4c0,0.2-0.1,0.4-0.2,0.5    c-0.1,0.1-0.3,0.2-0.5,0.2h-7c-0.2,0-0.4-0.1-0.5-0.2c-0.1-0.1-0.2-0.3-0.2-0.5V3.4c0-0.2,0.1-0.4,0.2-0.5    c0.1-0.1,0.3-0.2,0.5-0.2h12.1c2.2,0,4.2,0.5,5.9,1.6c1.7,1.1,3,2.5,4,4.5c0.9,1.9,1.4,4.1,1.4,6.6c0,2.4-0.4,4.4-1.3,6.2    c-0.9,1.8-2.1,3.2-3.7,4.2c-0.1,0-0.1,0.1-0.2,0.1c0,0.1,0,0.1,0,0.2l5.5,17.7l0.1,0.2c0,0.4-0.2,0.6-0.7,0.6h-7.2    C159.1,44.6,158.8,44.4,158.7,44z M151.5,10.2v10.2c0,0.2,0.1,0.3,0.3,0.3h2.7c1.2,0,2.2-0.5,3-1.5c0.8-1,1.2-2.3,1.2-3.9    c0-1.7-0.4-3-1.2-4c-0.8-1-1.8-1.5-3-1.5h-2.7C151.6,9.9,151.5,10,151.5,10.2z"/>
		<path class="st0" d="M193.6,9.7c-0.1,0.1-0.3,0.2-0.5,0.2h-12.5c-0.2,0-0.3,0.1-0.3,0.3v9.5c0,0.2,0.1,0.3,0.3,0.3h7.2    c0.2,0,0.4,0.1,0.5,0.2c0.1,0.1,0.2,0.3,0.2,0.5v5.8c0,0.2-0.1,0.4-0.2,0.5c-0.1,0.1-0.3,0.2-0.5,0.2h-7.2c-0.2,0-0.3,0.1-0.3,0.3    v9.5c0,0.2,0.1,0.3,0.3,0.3h12.5c0.2,0,0.4,0.1,0.5,0.2c0.1,0.1,0.2,0.3,0.2,0.5v5.8c0,0.2-0.1,0.4-0.2,0.5    c-0.1,0.1-0.3,0.2-0.5,0.2h-20.6c-0.2,0-0.4-0.1-0.5-0.2c-0.1-0.1-0.2-0.3-0.2-0.5V3.4c0-0.2,0.1-0.4,0.2-0.5    c0.1-0.1,0.3-0.2,0.5-0.2h20.6c0.2,0,0.4,0.1,0.5,0.2c0.1,0.1,0.2,0.3,0.2,0.5v5.8C193.8,9.4,193.8,9.6,193.6,9.7z"/>
		<path class="st0" d="M203.4,43.7c-1.8-0.9-3.1-2.2-4.1-3.9s-1.4-3.6-1.4-5.7v-1.7c0-0.2,0.1-0.4,0.2-0.5c0.1-0.1,0.3-0.2,0.5-0.2    h6.9c0.2,0,0.4,0.1,0.5,0.2c0.1,0.1,0.2,0.3,0.2,0.5v1.3c0,1.2,0.3,2.2,1,3c0.6,0.8,1.4,1.1,2.4,1.1s1.8-0.4,2.4-1.1    c0.6-0.7,1-1.7,1-2.8c0-1.2-0.4-2.2-1.2-3.1c-0.8-0.9-2.4-2.1-4.7-3.8c-2-1.4-3.6-2.7-4.9-3.8c-1.2-1.1-2.3-2.5-3.2-4.1    c-0.9-1.6-1.3-3.5-1.3-5.7c0-3.4,1.1-6.1,3.2-8.2c2.1-2,4.9-3.1,8.4-3.1c3.5,0,6.3,1.1,8.5,3.2c2.1,2.1,3.2,4.9,3.2,8.3v1.4    c0,0.2-0.1,0.4-0.2,0.5c-0.1,0.1-0.3,0.2-0.5,0.2h-6.9c-0.2,0-0.4-0.1-0.5-0.2c-0.1-0.1-0.2-0.3-0.2-0.5v-1.6c0-1.2-0.3-2.2-0.9-3    c-0.6-0.7-1.4-1.1-2.4-1.1c-1,0-1.7,0.4-2.3,1c-0.6,0.7-0.9,1.7-0.9,2.9c0,1.2,0.4,2.3,1.1,3.2c0.8,0.9,2.3,2.2,4.5,3.8    c2.5,1.8,4.3,3.3,5.6,4.5s2.2,2.4,2.9,3.8c0.7,1.4,1,3,1,4.9c0,3.5-1.1,6.3-3.2,8.4c-2.2,2.1-5,3.1-8.5,3.1    C207.2,45.1,205.1,44.7,203.4,43.7z"/>
		<path class="st0" d="M244.4,4.3c1.7,1.1,3,2.6,4,4.5c0.9,1.9,1.4,4.1,1.4,6.6c0,3.7-1,6.7-3,8.9c-2,2.2-4.6,3.4-7.9,3.4h-4.5    c-0.2,0-0.3,0.1-0.3,0.3v15.9c0,0.2-0.1,0.4-0.2,0.5c-0.1,0.1-0.3,0.2-0.5,0.2h-7c-0.2,0-0.4-0.1-0.5-0.2    c-0.1-0.1-0.2-0.3-0.2-0.5V3.4c0-0.2,0.1-0.4,0.2-0.5c0.1-0.1,0.3-0.2,0.5-0.2h12.1C240.7,2.6,242.7,3.2,244.4,4.3z M240.2,19.6    c0.8-1,1.2-2.3,1.2-4c0-1.8-0.4-3.1-1.2-4.1c-0.8-1-1.8-1.5-3.1-1.5h-2.6c-0.2,0-0.3,0.1-0.3,0.3v10.5c0,0.2,0.1,0.3,0.3,0.3h2.6    C238.3,21.1,239.4,20.6,240.2,19.6z"/>
		<path class="st0" d="M256.9,41.9c-2.2-2.2-3.3-5-3.3-8.6V14.1c0-3.6,1.1-6.5,3.3-8.6c2.2-2.2,5.1-3.2,8.8-3.2    c3.7,0,6.6,1.1,8.8,3.2c2.2,2.2,3.3,5,3.3,8.6v19.2c0,3.6-1.1,6.5-3.3,8.6c-2.2,2.2-5.2,3.2-8.8,3.2C262,45.1,259.1,44,256.9,41.9    z M268.4,36.7c0.7-0.8,1-1.8,1-3.1V13.7c0-1.3-0.3-2.3-1-3.1c-0.7-0.8-1.6-1.2-2.7-1.2c-1.1,0-2,0.4-2.7,1.2c-0.7,0.8-1,1.8-1,3.1    v19.9c0,1.3,0.3,2.3,1,3.1c0.7,0.8,1.5,1.2,2.7,1.2C266.8,37.9,267.7,37.5,268.4,36.7z"/>
		<path class="st0" d="M300.5,2.9c0.1-0.1,0.3-0.2,0.5-0.2h7c0.2,0,0.4,0.1,0.5,0.2c0.1,0.1,0.2,0.3,0.2,0.5v40.5    c0,0.2-0.1,0.4-0.2,0.5c-0.1,0.1-0.3,0.2-0.5,0.2h-7.9c-0.4,0-0.7-0.2-0.8-0.6l-7.4-23.2c0-0.1-0.1-0.2-0.2-0.1    c-0.1,0-0.1,0.1-0.1,0.2l0.1,23c0,0.2-0.1,0.4-0.2,0.5c-0.1,0.1-0.3,0.2-0.5,0.2h-7c-0.2,0-0.4-0.1-0.5-0.2    c-0.1-0.1-0.2-0.3-0.2-0.5V3.4c0-0.2,0.1-0.4,0.2-0.5c0.1-0.1,0.3-0.2,0.5-0.2h7.9c0.4,0,0.7,0.2,0.8,0.6l7.5,23.2    c0,0.1,0.1,0.2,0.2,0.1c0.1,0,0.1-0.1,0.1-0.2l-0.1-23C300.3,3.2,300.4,3,300.5,2.9z"/>
		<path class="st0" d="M319.2,43.7c-1.8-0.9-3.1-2.2-4.1-3.9s-1.4-3.6-1.4-5.7v-1.7c0-0.2,0.1-0.4,0.2-0.5c0.1-0.1,0.3-0.2,0.5-0.2    h6.9c0.2,0,0.4,0.1,0.5,0.2c0.1,0.1,0.2,0.3,0.2,0.5v1.3c0,1.2,0.3,2.2,1,3c0.6,0.8,1.4,1.1,2.4,1.1s1.8-0.4,2.4-1.1    c0.6-0.7,1-1.7,1-2.8c0-1.2-0.4-2.2-1.2-3.1c-0.8-0.9-2.4-2.1-4.7-3.8c-2-1.4-3.6-2.7-4.9-3.8c-1.2-1.1-2.3-2.5-3.2-4.1    c-0.9-1.6-1.3-3.5-1.3-5.7c0-3.4,1.1-6.1,3.2-8.2c2.1-2,4.9-3.1,8.4-3.1c3.5,0,6.3,1.1,8.5,3.2c2.1,2.1,3.2,4.9,3.2,8.3v1.4    c0,0.2-0.1,0.4-0.2,0.5c-0.1,0.1-0.3,0.2-0.5,0.2h-6.9c-0.2,0-0.4-0.1-0.5-0.2c-0.1-0.1-0.2-0.3-0.2-0.5v-1.6c0-1.2-0.3-2.2-0.9-3    c-0.6-0.7-1.4-1.1-2.4-1.1c-1,0-1.7,0.4-2.3,1c-0.6,0.7-0.9,1.7-0.9,2.9c0,1.2,0.4,2.3,1.1,3.2c0.8,0.9,2.3,2.2,4.5,3.8    c2.5,1.8,4.3,3.3,5.6,4.5s2.2,2.4,2.9,3.8s1,3,1,4.9c0,3.5-1.1,6.3-3.2,8.4c-2.2,2.1-5,3.1-8.5,3.1C323,45.1,321,44.7,319.2,43.7z    "/>
		<path class="st0" d="M342,44.4c-0.1-0.1-0.2-0.3-0.2-0.5V3.4c0-0.2,0.1-0.4,0.2-0.5c0.1-0.1,0.3-0.2,0.5-0.2h7    c0.2,0,0.4,0.1,0.5,0.2c0.1,0.1,0.2,0.3,0.2,0.5v40.5c0,0.2-0.1,0.4-0.2,0.5c-0.1,0.1-0.3,0.2-0.5,0.2h-7    C342.3,44.6,342.1,44.6,342,44.4z"/>
		<path class="st0" d="M376.9,41.7c-2.2,2-5.1,3-8.7,3h-11.3c-0.2,0-0.4-0.1-0.5-0.2c-0.1-0.1-0.2-0.3-0.2-0.5V3.4    c0-0.2,0.1-0.4,0.2-0.5c0.1-0.1,0.3-0.2,0.5-0.2h10c4,0,7.1,1,9.4,2.9c2.3,1.9,3.4,4.8,3.4,8.6c0,4-1.4,6.8-4.1,8.6    c-0.2,0.1-0.2,0.2-0.1,0.4c3.2,2.2,4.7,5.6,4.7,9.9C380.3,36.8,379.1,39.7,376.9,41.7z M364.6,10.2v9.4c0,0.2,0.1,0.3,0.3,0.3h2.2    c1.4,0,2.4-0.4,3.2-1.3c0.8-0.9,1.1-2.1,1.1-3.6c0-1.6-0.4-2.9-1.1-3.8c-0.7-0.9-1.8-1.3-3.2-1.3h-2.2    C364.7,9.9,364.6,10,364.6,10.2z M370.7,35.9c0.8-1,1.1-2.3,1.1-4.1s-0.4-3.2-1.1-4.2c-0.8-1-1.8-1.6-3.1-1.6h-2.7    c-0.2,0-0.3,0.1-0.3,0.3V37c0,0.2,0.1,0.3,0.3,0.3h2.6C368.9,37.3,369.9,36.9,370.7,35.9z"/>
		<path class="st0" d="M385.1,44.4c-0.1-0.1-0.2-0.3-0.2-0.5V3.4c0-0.2,0.1-0.4,0.2-0.5c0.1-0.1,0.3-0.2,0.5-0.2h7    c0.2,0,0.4,0.1,0.5,0.2c0.1,0.1,0.2,0.3,0.2,0.5v33.7c0,0.2,0.1,0.3,0.3,0.3h12.6c0.2,0,0.4,0.1,0.5,0.2c0.1,0.1,0.2,0.3,0.2,0.5    v5.8c0,0.2-0.1,0.4-0.2,0.5c-0.1,0.1-0.3,0.2-0.5,0.2h-20.6C385.4,44.6,385.3,44.6,385.1,44.4z"/>
		<path class="st0" d="M432.8,9.7c-0.1,0.1-0.3,0.2-0.5,0.2h-12.5c-0.2,0-0.3,0.1-0.3,0.3v9.5c0,0.2,0.1,0.3,0.3,0.3h7.2    c0.2,0,0.4,0.1,0.5,0.2c0.1,0.1,0.2,0.3,0.2,0.5v5.8c0,0.2-0.1,0.4-0.2,0.5c-0.1,0.1-0.3,0.2-0.5,0.2h-7.2c-0.2,0-0.3,0.1-0.3,0.3    v9.5c0,0.2,0.1,0.3,0.3,0.3h12.5c0.2,0,0.4,0.1,0.5,0.2c0.1,0.1,0.2,0.3,0.2,0.5v5.8c0,0.2-0.1,0.4-0.2,0.5    c-0.1,0.1-0.3,0.2-0.5,0.2h-20.6c-0.2,0-0.4-0.1-0.5-0.2c-0.1-0.1-0.2-0.3-0.2-0.5V3.4c0-0.2,0.1-0.4,0.2-0.5    c0.1-0.1,0.3-0.2,0.5-0.2h20.6c0.2,0,0.4,0.1,0.5,0.2c0.1,0.1,0.2,0.3,0.2,0.5v5.8C433.1,9.4,433,9.6,432.8,9.7z"/>
		<path class="st0" d="M455.2,43.7c-1.8-0.9-3.1-2.2-4.1-3.9s-1.4-3.6-1.4-5.7v-1.7c0-0.2,0.1-0.4,0.2-0.5c0.1-0.1,0.3-0.2,0.5-0.2    h6.9c0.2,0,0.4,0.1,0.5,0.2c0.1,0.1,0.2,0.3,0.2,0.5v1.3c0,1.2,0.3,2.2,1,3c0.6,0.8,1.4,1.1,2.4,1.1s1.8-0.4,2.4-1.1    c0.6-0.7,1-1.7,1-2.8c0-1.2-0.4-2.2-1.2-3.1c-0.8-0.9-2.4-2.1-4.7-3.8c-2-1.4-3.6-2.7-4.9-3.8c-1.2-1.1-2.3-2.5-3.2-4.1    c-0.9-1.6-1.3-3.5-1.3-5.7c0-3.4,1.1-6.1,3.2-8.2c2.1-2,4.9-3.1,8.4-3.1c3.5,0,6.3,1.1,8.5,3.2c2.1,2.1,3.2,4.9,3.2,8.3v1.4    c0,0.2-0.1,0.4-0.2,0.5c-0.1,0.1-0.3,0.2-0.5,0.2h-6.9c-0.2,0-0.4-0.1-0.5-0.2c-0.1-0.1-0.2-0.3-0.2-0.5v-1.6c0-1.2-0.3-2.2-0.9-3    c-0.6-0.7-1.4-1.1-2.4-1.1c-1,0-1.7,0.4-2.3,1c-0.6,0.7-0.9,1.7-0.9,2.9c0,1.2,0.4,2.3,1.1,3.2c0.8,0.9,2.3,2.2,4.5,3.8    c2.5,1.8,4.3,3.3,5.6,4.5s2.2,2.4,2.9,3.8s1,3,1,4.9c0,3.5-1.1,6.3-3.2,8.4c-2.2,2.1-5,3.1-8.5,3.1    C459,45.1,456.9,44.7,455.2,43.7z"/>
		<path class="st0" d="M494.6,44l-1-5.8c0-0.2-0.1-0.3-0.4-0.3h-7.6c-0.2,0-0.4,0.1-0.4,0.3l-1,5.8c0,0.4-0.3,0.7-0.8,0.7h-7    c-0.5,0-0.7-0.3-0.6-0.8l8.8-40.5c0.1-0.4,0.3-0.7,0.8-0.7h8.1c0.4,0,0.7,0.2,0.8,0.7l8.8,40.5l0.1,0.2c0,0.4-0.2,0.5-0.7,0.5    h-7.2C494.9,44.6,494.6,44.4,494.6,44z M486.7,31.4h5.4c0.2,0,0.3-0.1,0.2-0.3l-2.8-16.4c0-0.1-0.1-0.2-0.2-0.2s-0.1,0.1-0.2,0.2    l-2.7,16.4C486.5,31.3,486.5,31.4,486.7,31.4z"/>
		<path class="st0" d="M524.5,2.9c0.1-0.1,0.3-0.2,0.5-0.2h7c0.2,0,0.4,0.1,0.5,0.2c0.1,0.1,0.2,0.3,0.2,0.5v40.5    c0,0.2-0.1,0.4-0.2,0.5c-0.1,0.1-0.3,0.2-0.5,0.2h-7.9c-0.4,0-0.7-0.2-0.8-0.6l-7.4-23.2c0-0.1-0.1-0.2-0.2-0.1    c-0.1,0-0.1,0.1-0.1,0.2l0.1,23c0,0.2-0.1,0.4-0.2,0.5c-0.1,0.1-0.3,0.2-0.5,0.2h-7c-0.2,0-0.4-0.1-0.5-0.2    c-0.1-0.1-0.2-0.3-0.2-0.5V3.4c0-0.2,0.1-0.4,0.2-0.5c0.1-0.1,0.3-0.2,0.5-0.2h7.9c0.4,0,0.7,0.2,0.8,0.6l7.5,23.2    c0,0.1,0.1,0.2,0.2,0.1c0.1,0,0.1-0.1,0.1-0.2l-0.1-23C524.3,3.2,524.4,3,524.5,2.9z"/>
		<path class="st0" d="M538.8,44.4c-0.1-0.1-0.2-0.3-0.2-0.5V3.4c0-0.2,0.1-0.4,0.2-0.5c0.1-0.1,0.3-0.2,0.5-0.2h10.8    c3.6,0,6.6,1.1,8.8,3.2c2.2,2.1,3.3,4.9,3.3,8.5V33c0,3.5-1.1,6.3-3.3,8.5c-2.2,2.1-5.1,3.2-8.8,3.2h-10.8    C539.1,44.6,539,44.6,538.8,44.4z M547.4,37.4l2.7-0.1c1.1,0,2-0.5,2.6-1.4c0.7-0.9,1-2,1.1-3.5V14.9c0-1.5-0.3-2.7-1-3.6    c-0.7-0.9-1.6-1.3-2.8-1.3h-2.6c-0.2,0-0.3,0.1-0.3,0.3v26.9C547.1,37.3,547.2,37.4,547.4,37.4z"/>
		<path class="st0" d="M159.9,100.8l-1-5.8c0-0.2-0.1-0.3-0.4-0.3h-7.6c-0.2,0-0.4,0.1-0.4,0.3l-1,5.8c0,0.4-0.3,0.7-0.8,0.7h-7    c-0.5,0-0.7-0.3-0.6-0.8l8.8-40.5c0.1-0.4,0.3-0.7,0.8-0.7h8.1c0.4,0,0.7,0.2,0.8,0.7l8.8,40.5l0.1,0.2c0,0.4-0.2,0.5-0.7,0.5    h-7.2C160.2,101.5,159.9,101.3,159.9,100.8z M152,88.2h5.4c0.2,0,0.3-0.1,0.2-0.3l-2.8-16.4c0-0.1-0.1-0.2-0.2-0.2    s-0.1,0.1-0.2,0.2l-2.7,16.4C151.8,88.1,151.9,88.2,152,88.2z"/>
		<path class="st0" d="M189.9,59.7c0.1-0.1,0.3-0.2,0.5-0.2h7c0.2,0,0.4,0.1,0.5,0.2c0.1,0.1,0.2,0.3,0.2,0.5v40.5    c0,0.2-0.1,0.4-0.2,0.5c-0.1,0.1-0.3,0.2-0.5,0.2h-7.9c-0.4,0-0.7-0.2-0.8-0.6l-7.4-23.2c0-0.1-0.1-0.2-0.2-0.1    c-0.1,0-0.1,0.1-0.1,0.2l0.1,23c0,0.2-0.1,0.4-0.2,0.5c-0.1,0.1-0.3,0.2-0.5,0.2h-7c-0.2,0-0.4-0.1-0.5-0.2    c-0.1-0.1-0.2-0.3-0.2-0.5V60.2c0-0.2,0.1-0.4,0.2-0.5c0.1-0.1,0.3-0.2,0.5-0.2h7.9c0.4,0,0.7,0.2,0.8,0.6l7.5,23.2    c0,0.1,0.1,0.2,0.2,0.2c0.1,0,0.1-0.1,0.1-0.2l-0.1-23C189.7,60,189.7,59.9,189.9,59.7z"/>
		<path class="st0" d="M204.1,101.3c-0.1-0.1-0.2-0.3-0.2-0.5V60.2c0-0.2,0.1-0.4,0.2-0.5c0.1-0.1,0.3-0.2,0.5-0.2h10.8    c3.6,0,6.6,1.1,8.8,3.2c2.2,2.1,3.3,4.9,3.3,8.5v18.7c0,3.5-1.1,6.3-3.3,8.5c-2.2,2.1-5.1,3.2-8.8,3.2h-10.8    C204.4,101.5,204.3,101.4,204.1,101.3z M212.7,94.2l2.7-0.1c1.1,0,2-0.5,2.6-1.4c0.7-0.9,1-2,1.1-3.5V71.7c0-1.5-0.3-2.7-1-3.6    c-0.7-0.9-1.6-1.3-2.8-1.3h-2.6c-0.2,0-0.3,0.1-0.3,0.3v26.9C212.4,94.1,212.5,94.2,212.7,94.2z"/>
		<path class="st0" d="M250.3,100.6c-1.8-0.9-3.1-2.2-4.1-3.9s-1.4-3.6-1.4-5.7v-1.7c0-0.2,0.1-0.4,0.2-0.5c0.1-0.1,0.3-0.2,0.5-0.2    h6.9c0.2,0,0.4,0.1,0.5,0.2c0.1,0.1,0.2,0.3,0.2,0.5v1.3c0,1.2,0.3,2.2,1,3c0.6,0.8,1.4,1.1,2.4,1.1c1,0,1.8-0.4,2.4-1.1    c0.6-0.7,1-1.7,1-2.8c0-1.2-0.4-2.2-1.2-3.1c-0.8-0.9-2.4-2.1-4.7-3.8c-2-1.4-3.6-2.7-4.9-3.8c-1.2-1.1-2.3-2.5-3.2-4.1    c-0.9-1.6-1.3-3.5-1.3-5.7c0-3.4,1.1-6.1,3.2-8.2c2.1-2,4.9-3.1,8.4-3.1c3.5,0,6.3,1.1,8.5,3.2c2.1,2.1,3.2,4.9,3.2,8.3V72    c0,0.2-0.1,0.4-0.2,0.5c-0.1,0.1-0.3,0.2-0.5,0.2h-6.9c-0.2,0-0.4-0.1-0.5-0.2c-0.1-0.1-0.2-0.3-0.2-0.5v-1.6c0-1.2-0.3-2.2-0.9-3    c-0.6-0.7-1.4-1.1-2.4-1.1c-1,0-1.7,0.4-2.3,1c-0.6,0.7-0.9,1.7-0.9,2.9c0,1.2,0.4,2.3,1.1,3.2c0.8,0.9,2.3,2.2,4.5,3.8    c2.5,1.8,4.3,3.3,5.6,4.5s2.2,2.4,2.9,3.8c0.7,1.4,1,3,1,4.9c0,3.5-1.1,6.3-3.2,8.4c-2.2,2.1-5,3.1-8.5,3.1    C254.1,102,252.1,101.5,250.3,100.6z"/>
		<path class="st0" d="M273.1,101.3c-0.1-0.1-0.2-0.3-0.2-0.5V60.2c0-0.2,0.1-0.4,0.2-0.5c0.1-0.1,0.3-0.2,0.5-0.2h7    c0.2,0,0.4,0.1,0.5,0.2c0.1,0.1,0.2,0.3,0.2,0.5v40.5c0,0.2-0.1,0.4-0.2,0.5c-0.1,0.1-0.3,0.2-0.5,0.2h-7    C273.4,101.5,273.2,101.4,273.1,101.3z"/>
		<path class="st0" d="M287.4,101.3c-0.1-0.1-0.2-0.3-0.2-0.5V60.2c0-0.2,0.1-0.4,0.2-0.5c0.1-0.1,0.3-0.2,0.5-0.2h7    c0.2,0,0.4,0.1,0.5,0.2c0.1,0.1,0.2,0.3,0.2,0.5v33.7c0,0.2,0.1,0.3,0.3,0.3h12.6c0.2,0,0.4,0.1,0.5,0.2c0.1,0.1,0.2,0.3,0.2,0.5    v5.8c0,0.2-0.1,0.4-0.2,0.5c-0.1,0.1-0.3,0.2-0.5,0.2h-20.6C287.7,101.5,287.6,101.4,287.4,101.3z"/>
		<path class="st0" d="M313.6,101.3c-0.1-0.1-0.2-0.3-0.2-0.5V60.2c0-0.2,0.1-0.4,0.2-0.5c0.1-0.1,0.3-0.2,0.5-0.2h7    c0.2,0,0.4,0.1,0.5,0.2c0.1,0.1,0.2,0.3,0.2,0.5v40.5c0,0.2-0.1,0.4-0.2,0.5c-0.1,0.1-0.3,0.2-0.5,0.2h-7    C313.9,101.5,313.7,101.4,313.6,101.3z"/>
		<path class="st0" d="M330.4,98.8c-2.2-2.1-3.3-5-3.3-8.6V70.7c0-3.6,1.1-6.4,3.3-8.5c2.2-2.1,5.1-3.2,8.7-3.2    c3.6,0,6.5,1.1,8.7,3.2c2.2,2.1,3.3,5,3.3,8.5v0.7c0,0.2-0.1,0.4-0.2,0.5c-0.1,0.1-0.3,0.2-0.5,0.2l-7,0.3c-0.5,0-0.7-0.2-0.7-0.7    v-1.6c0-1.2-0.3-2.1-1-2.8c-0.6-0.7-1.5-1.1-2.6-1.1c-1,0-1.9,0.4-2.5,1.1c-0.6,0.7-1,1.7-1,2.8v20.7c0,1.2,0.3,2.1,1,2.8    c0.6,0.7,1.5,1,2.5,1c1.1,0,1.9-0.3,2.6-1c0.6-0.7,1-1.6,1-2.8v-1.6c0-0.2,0.1-0.4,0.2-0.5c0.1-0.1,0.3-0.2,0.5-0.2l7,0.3    c0.2,0,0.4,0.1,0.5,0.2c0.1,0.1,0.2,0.3,0.2,0.5v0.6c0,3.6-1.1,6.5-3.3,8.6c-2.2,2.1-5.1,3.2-8.7,3.2    C335.5,102,332.6,100.9,330.4,98.8z"/>
		<path class="st0" d="M372.4,100.8l-1-5.8c0-0.2-0.1-0.3-0.4-0.3h-7.6c-0.2,0-0.4,0.1-0.4,0.3l-1,5.8c0,0.4-0.3,0.7-0.8,0.7h-7    c-0.5,0-0.7-0.3-0.6-0.8l8.8-40.5c0.1-0.4,0.3-0.7,0.8-0.7h8.1c0.4,0,0.7,0.2,0.8,0.7l8.8,40.5l0.1,0.2c0,0.4-0.2,0.5-0.7,0.5    h-7.2C372.7,101.5,372.4,101.3,372.4,100.8z M364.5,88.2h5.4c0.2,0,0.3-0.1,0.2-0.3l-2.8-16.4c0-0.1-0.1-0.2-0.2-0.2    s-0.1,0.1-0.2,0.2l-2.7,16.4C364.3,88.1,364.4,88.2,364.5,88.2z"/>
		<path class="st0" d="M405.3,59.7c0.1,0.1,0.2,0.3,0.2,0.5v5.8c0,0.2-0.1,0.4-0.2,0.5c-0.1,0.1-0.3,0.2-0.5,0.2h-7.5    c-0.2,0-0.3,0.1-0.3,0.3v33.7c0,0.2-0.1,0.4-0.2,0.5c-0.1,0.1-0.3,0.2-0.5,0.2h-7c-0.2,0-0.4-0.1-0.5-0.2    c-0.1-0.1-0.2-0.3-0.2-0.5V67.1c0-0.2-0.1-0.3-0.3-0.3H381c-0.2,0-0.4-0.1-0.5-0.2c-0.1-0.1-0.2-0.3-0.2-0.5v-5.8    c0-0.2,0.1-0.4,0.2-0.5c0.1-0.1,0.3-0.2,0.5-0.2h23.7C405,59.5,405.1,59.6,405.3,59.7z"/>
		<path class="st0" d="M431.9,66.6c-0.1,0.1-0.3,0.2-0.5,0.2h-12.5c-0.2,0-0.3,0.1-0.3,0.3v9.5c0,0.2,0.1,0.3,0.3,0.3h7.2    c0.2,0,0.4,0.1,0.5,0.2c0.1,0.1,0.2,0.3,0.2,0.5v5.8c0,0.2-0.1,0.4-0.2,0.5c-0.1,0.1-0.3,0.2-0.5,0.2h-7.2c-0.2,0-0.3,0.1-0.3,0.3    v9.5c0,0.2,0.1,0.3,0.3,0.3h12.5c0.2,0,0.4,0.1,0.5,0.2c0.1,0.1,0.2,0.3,0.2,0.5v5.8c0,0.2-0.1,0.4-0.2,0.5    c-0.1,0.1-0.3,0.2-0.5,0.2h-20.6c-0.2,0-0.4-0.1-0.5-0.2c-0.1-0.1-0.2-0.3-0.2-0.5V60.2c0-0.2,0.1-0.4,0.2-0.5    c0.1-0.1,0.3-0.2,0.5-0.2h20.6c0.2,0,0.4,0.1,0.5,0.2c0.1,0.1,0.2,0.3,0.2,0.5v5.8C432.2,66.3,432.1,66.4,431.9,66.6z"/>
		<path class="st0" d="M441.7,100.6c-1.8-0.9-3.1-2.2-4.1-3.9s-1.4-3.6-1.4-5.7v-1.7c0-0.2,0.1-0.4,0.2-0.5c0.1-0.1,0.3-0.2,0.5-0.2    h6.9c0.2,0,0.4,0.1,0.5,0.2c0.1,0.1,0.2,0.3,0.2,0.5v1.3c0,1.2,0.3,2.2,1,3c0.6,0.8,1.4,1.1,2.4,1.1s1.8-0.4,2.4-1.1    c0.6-0.7,1-1.7,1-2.8c0-1.2-0.4-2.2-1.2-3.1c-0.8-0.9-2.4-2.1-4.7-3.8c-2-1.4-3.6-2.7-4.9-3.8c-1.2-1.1-2.3-2.5-3.2-4.1    c-0.9-1.6-1.3-3.5-1.3-5.7c0-3.4,1.1-6.1,3.2-8.2c2.1-2,4.9-3.1,8.4-3.1c3.5,0,6.3,1.1,8.5,3.2c2.1,2.1,3.2,4.9,3.2,8.3V72    c0,0.2-0.1,0.4-0.2,0.5c-0.1,0.1-0.3,0.2-0.5,0.2h-6.9c-0.2,0-0.4-0.1-0.5-0.2c-0.1-0.1-0.2-0.3-0.2-0.5v-1.6c0-1.2-0.3-2.2-0.9-3    c-0.6-0.7-1.4-1.1-2.4-1.1c-1,0-1.7,0.4-2.3,1c-0.6,0.7-0.9,1.7-0.9,2.9c0,1.2,0.4,2.3,1.1,3.2s2.3,2.2,4.5,3.8    c2.5,1.8,4.3,3.3,5.6,4.5s2.2,2.4,2.9,3.8c0.7,1.4,1,3,1,4.9c0,3.5-1.1,6.3-3.2,8.4c-2.2,2.1-5,3.1-8.5,3.1    C445.5,102,443.4,101.5,441.7,100.6z"/>
	</g>
	<path class="st1" d="M97.2,77.5c-5.3,0.8-6.6-4.6-7.1-5.6c-1.2-2.4-1.5-5.1-1.5-7.7c0.1-2.7-0.5-5.3-0.8-8   c-0.1-1.2-0.4-2.4-0.5-3.6c-0.2-1.4-0.3-2.8-0.4-4.1c-0.7-5.5-1.4-11-1.4-16.5c0-2.5-1.6-4.5-4.1-4.7c-2.3-0.2-4.7-0.1-7,0   c-1.2,0-1.9,0.8-2.2,1.9c-0.2,1.1-0.4,2.1-0.5,3.2c-0.1,1.1-0.1,2.3-0.2,3.4c-0.2,1.8-1.3,2.7-3,2.7c-1.2,0-2.4,0-3.6,0   c-0.4,0-0.8-0.2-1.2-0.4c-1.3-1-1.7-2.4-2-3.9c-0.3-1.6-0.6-3.3-0.9-5c-0.3-1.4-0.4-1.6-1.8-1.7c-0.6-0.1-1.1,0-1.7-0.1   c-0.7,0-1.4-0.1-2-0.2l0.2-10.7c1.2-0.8,11.7-6.1,15.3-8c0.8-0.4,1.1-1.1,0.9-1.8C71.4,5.6,61.1,0,50.8,0c-0.1,1-0.1,1.7-0.1,2.4   c-0.2,5.6-0.3,22.4-0.3,23c-0.1,1.3-0.4,1.6-1.7,1.7c-0.6,0-1.1,0.1-1.7,0.1c-1.1,0.1-2.1,0.4-2.8,1.1c-0.5,0.5-0.9,1.1-1.1,1.7   c-0.3,1.4-0.5,2.8-0.5,4.2c0,1.3-0.5,2.4-1,3.4c-0.2,0.5-0.6,0.8-1.1,0.8c-1,0.1-2.1,0.2-3.1,0.2c-2.4,0-4.4-1.9-4.5-4.3   c-0.1-1.3,0-2.6,0.1-3.9c0.1-2.5-0.6-3.2-3.1-3.2c-0.1,0-0.3,0-0.4,0c-1.8,0.1-3.6,0.1-5.3,0.2c-2.7,0.1-4.1,1.1-4.5,3.7   c-0.3,2-0.5,4-0.5,5.9c0,7.3-0.5,14.5-1.1,21.8c-0.1,1.6-1.6,15.5-1.8,16.6c0.4,3.2-5.7,2.8-6.9,3.2c-10.9,1-12.4,27.1-3.1,26.9   c30.3,0,59.2,0.1,89.5,0.1C113.3,104.6,108.1,77.5,97.2,77.5z M37.6,71c2.2-22.4,31.9-22.1,31.9,0H37.6z"/>
	<rect x="121.5" class="st1" width="1.5" height="105.7"/>
</g>
</svg>