<?xml version="1.0" standalone="no"?>
<!DOCTYPE svg PUBLIC "-//W3C//DTD SVG 1.1//EN" "http://www.w3.org/Graphics/SVG/1.1/DTD/svg11.dtd">
<svg xmlns="http://www.w3.org/2000/svg" xmlns:xlink="http://www.w3.org/1999/xlink" version="1.1" id="Layer_1" x="0px" y="0px" viewBox="0 0 380.2 375.2" style="enable-background:new 0 0 380.2 375.2;" xml:space="preserve" width="380.20001220703125" height="375.20001220703125">
<style type="text/css">
	.st0{fill:#CC4900;}
</style>
<g>
	<path class="st0" d="M344.8,274.9c-18.9,2.9-23.3-16.2-25.1-20c-4.2-8.6-5.4-17.9-5.2-27.3c0.2-9.6-1.8-18.9-2.9-28.4   c-0.5-4.3-1.3-8.5-1.9-12.7c-0.6-4.9-1-9.8-1.6-14.6c-2.5-19.5-5-39-5-58.7c0-9-5.5-15.8-14.6-16.6c-8.2-0.7-16.6-0.3-24.9-0.1   c-4.2,0.1-6.9,2.7-7.7,6.7c-0.8,3.7-1.3,7.6-1.7,11.4c-0.4,4-0.3,8-0.8,12c-0.8,6.2-4.6,9.6-10.8,9.8c-4.3,0.1-8.6,0.1-12.9-0.1   c-1.4-0.1-2.9-0.7-4.1-1.6c-4.8-3.4-6.1-8.7-7.2-14c-1.2-5.8-2.2-11.7-3.3-17.6c-0.9-4.9-1.5-5.5-6.4-6.2c-2-0.3-4-0.2-6-0.3   c-2.4-0.2-4.8-0.4-7.2-0.6l0.7-38.1c4.4-2.7,41.6-21.6,54.3-28.5c2.7-1.5,3.9-4,3.4-6.5C253.3,19.8,216.8,0,180.1,0   c-0.2,3.5-0.4,6.1-0.5,8.6c-0.6,19.8-1.1,79.4-1.2,81.5c-0.2,4.5-1.4,5.6-5.9,5.9c-2,0.2-4,0.3-6,0.4c-3.8,0.2-7.4,1.5-10.1,4.1   c-1.7,1.6-3.3,3.9-3.8,6.1c-1,4.9-1.8,10-1.9,15c-0.1,4.5-1.6,8.3-3.6,12.2c-0.9,1.7-2,2.7-3.9,2.8c-3.7,0.2-7.4,0.6-11.1,0.6   c-8.4,0-15.5-6.7-15.9-15.2c-0.2-4.6,0-9.2,0.2-13.8c0.3-8.8-2.1-11.3-10.9-11.5c-0.5,0-0.9,0-1.4,0c-6.3,0.2-12.6,0.5-18.9,0.6   c-9.6,0.2-14.4,3.8-15.9,13.2c-1.1,7-1.9,14-1.9,21.1c-0.1,25.8-1.7,51.6-3.9,77.3c-0.5,5.6-5.7,55.2-6.5,58.9   c1.3,11.2-20.1,9.9-24.6,11.4c-38.5,3.4-44,96-11.1,95.6c107.7,0.1,209.9,0.3,317.6,0.4C401.8,371,383.6,275,344.8,274.9z    M133.6,252c8-79.4,113.1-78.5,113.1,0H133.6z"/>
</g>
</svg>
